<svg width="32" height="40" viewBox="0 0 32 40" fill="none" xmlns="http://www.w3.org/2000/svg">
<g id="Group 35">
<path id="Vector" d="M19.75 1.25H4.75C3.75544 1.25 2.80161 1.64509 2.09835 2.34835C1.39509 3.05161 1 4.00544 1 5V35C1 35.9946 1.39509 36.9484 2.09835 37.6516C2.80161 38.3549 3.75544 38.75 4.75 38.75H27.25C28.2446 38.75 29.1984 38.3549 29.9016 37.6516C30.6049 36.9484 31 35.9946 31 35V12.5L19.75 1.25Z" stroke="white" stroke-width="2" stroke-linecap="round" stroke-linejoin="round"/>
<path id="Vector_2" d="M19.75 1.25V12.5H31" stroke="white" stroke-width="2" stroke-linecap="round" stroke-linejoin="round"/>
<path id="Vector_3" d="M23.5 21.875H8.5" stroke="white" stroke-width="2" stroke-linecap="round" stroke-linejoin="round"/>
<path id="Vector_4" d="M23.5 29.375H8.5" stroke="white" stroke-width="2" stroke-linecap="round" stroke-linejoin="round"/>
<path id="Vector_5" d="M12.25 14.375H10.375H8.5" stroke="white" stroke-width="2" stroke-linecap="round" stroke-linejoin="round"/>
</g>
</svg>
