<svg xmlns="http://www.w3.org/2000/svg" width="17.5" height="19.5" viewBox="0 0 17.5 19.5"><g transform="translate(-3.25 -2.035)"><path d="M-.75-.75h13.5V12.156a2.6,2.6,0,0,1-2.594,2.594H1.844A2.6,2.6,0,0,1-.75,12.156Zm12,1.5H.75V12.156A1.1,1.1,0,0,0,1.844,13.25h8.312a1.1,1.1,0,0,0,1.094-1.094Z" transform="translate(6.002 6.785)"/><path d="M2.39-.75H3.615a3.143,3.143,0,0,1,3.14,3.14V3.762a.989.989,0,0,1-.988.988H.238A.989.989,0,0,1-.75,3.762V2.39A3.143,3.143,0,0,1,2.39-.75Zm2.865,4V2.39A1.642,1.642,0,0,0,3.615.75H2.39A1.642,1.642,0,0,0,.75,2.39v.86Z" transform="translate(9 2.785)"/><path d="M16,.75H0A.75.75,0,0,1-.75,0,.75.75,0,0,1,0-.75H16a.75.75,0,0,1,.75.75A.75.75,0,0,1,16,.75Z" transform="translate(4 6.785)"/><path d="M0,7.166a.75.75,0,0,1-.75-.75V0A.75.75,0,0,1,0-.75.75.75,0,0,1,.75,0V6.416A.75.75,0,0,1,0,7.166Z" transform="translate(10.025 10.876)"/><path d="M0,7.166a.75.75,0,0,1-.75-.75V0A.75.75,0,0,1,0-.75.75.75,0,0,1,.75,0V6.416A.75.75,0,0,1,0,7.166Z" transform="translate(14 10.851)"/></g></svg>