<svg width="17" height="18" viewBox="0 0 17 18" fill="none" xmlns="http://www.w3.org/2000/svg">
<path d="M11.68 1.72646H13.6221C14.0338 1.71918 14.4338 1.86331 14.7463 2.13148C15.0587 2.39966 15.2618 2.77322 15.317 3.18124V8.27297C15.2618 8.68099 15.0587 9.05455 14.7463 9.32272C14.4338 9.5909 14.0338 9.73503 13.6221 9.72775H11.68M6.58828 11.1825V14.0921C6.58828 14.6708 6.81819 15.2259 7.22742 15.6351C7.63666 16.0443 8.1917 16.2743 8.77045 16.2743L11.68 9.72775V1.72646H3.47505C3.12421 1.72249 2.78376 1.84546 2.51642 2.07269C2.24908 2.29993 2.07288 2.61613 2.02027 2.96302L1.01647 9.50953C0.984827 9.71803 0.99889 9.93092 1.05769 10.1334C1.11649 10.336 1.21861 10.5233 1.357 10.6824C1.49538 10.8416 1.6667 10.9687 1.8591 11.0551C2.0515 11.1414 2.26038 11.1849 2.47125 11.1825H6.58828Z" stroke="white" stroke-width="1.45478" stroke-linecap="round" stroke-linejoin="round"/>
</svg>
