<svg xmlns="http://www.w3.org/2000/svg" width="5.54" height="21.12" viewBox="0 0 5.54 21.12"><g transform="translate(-9.23 -1.44)"><path d="M2-.75A2.75,2.75,0,1,1-.75,2,2.753,2.753,0,0,1,2-.75Zm0,4A1.25,1.25,0,1,0,.75,2,1.251,1.251,0,0,0,2,3.25Z" transform="translate(10.02 2.19)"/><path d="M2-.75A2.75,2.75,0,1,1-.75,2,2.753,2.753,0,0,1,2-.75Zm0,4A1.25,1.25,0,1,0,.75,2,1.251,1.251,0,0,0,2,3.25Z" transform="translate(9.98 10)"/><path d="M2-.75A2.75,2.75,0,1,1-.75,2,2.753,2.753,0,0,1,2-.75Zm0,4A1.25,1.25,0,1,0,.75,2,1.251,1.251,0,0,0,2,3.25Z" transform="translate(10.02 17.81)"/></g></svg>