<svg xmlns="http://www.w3.org/2000/svg" width="17.406" height="19.615" viewBox="0 0 17.406 19.615"><g transform="translate(-334.25 -227.939)"><path d="M5.528,17.746A1.3,1.3,0,0,1,4.5,17.235a1.282,1.282,0,0,1-.217-1.126l.755-2.745a3.3,3.3,0,0,1,.847-1.457L12.42,5.374a1.293,1.293,0,0,1,1.829,0l2.361,2.361a1.293,1.293,0,0,1,0,1.83L10.076,16.1a3.3,3.3,0,0,1-1.455.847L5.874,17.7A1.3,1.3,0,0,1,5.528,17.746ZM13.334,6.581,6.947,12.967a1.8,1.8,0,0,0-.461.794l-.659,2.4,2.4-.658a1.8,1.8,0,0,0,.792-.461L15.4,8.649Z" transform="translate(330.015 226.946)"/><path d="M2.213-.75A2.966,2.966,0,0,1,5.176,2.213V5.651H-.75V2.213A2.966,2.966,0,0,1,2.213-.75Zm1.463,4.9V2.213a1.463,1.463,0,0,0-2.926,0V4.151Z" transform="translate(346.814 229) rotate(45)"/><path d="M6.906.75H0A.75.75,0,0,1-.75,0,.75.75,0,0,1,0-.75H6.906a.75.75,0,0,1,.75.75A.75.75,0,0,1,6.906.75Z" transform="translate(344 242.891)"/><path d="M15.906.75H0A.75.75,0,0,1-.75,0,.75.75,0,0,1,0-.75H15.906a.75.75,0,0,1,.75.75A.75.75,0,0,1,15.906.75Z" transform="translate(335 246.804)"/></g></svg>