<svg width="24" height="24" viewBox="0 0 24 24" fill="none" xmlns="http://www.w3.org/2000/svg">
<path d="M18.619 14.0944C17.7305 16.9036 15.1035 18.9402 12.0005 18.9402C8.16749 18.9402 5.0603 15.833 5.0603 12C5.0603 8.16704 8.16749 5.05985 12.0005 5.05985C13.9167 5.05985 15.6521 5.83665 16.9077 7.09274L19.7739 4.21699C17.7838 2.22921 15.0357 1 12.0005 1C5.92503 0.999544 1 5.92458 1 12C1 18.0754 5.92503 23 12 23C18.075 23 23 18.075 23 12C23 11.3207 22.9385 10.6555 22.8205 10.0099H12V14.0944H18.619Z" stroke="white" stroke-miterlimit="10"/>
</svg>
