<svg width="24" height="24" viewBox="0 0 24 24" fill="none" xmlns="http://www.w3.org/2000/svg">
<path d="M17.5 1H6.5C3.46243 1 1 3.46243 1 6.5V17.5C1 20.5376 3.46243 23 6.5 23H17.5C20.5376 23 23 20.5376 23 17.5V6.5C23 3.46243 20.5376 1 17.5 1Z" stroke="white" stroke-linecap="round" stroke-linejoin="round"/>
<path d="M16.4 11.307C16.5357 12.2225 16.3794 13.1574 15.9531 13.9789C15.5269 14.8004 14.8525 15.4665 14.0258 15.8826C13.1991 16.2987 12.2623 16.4436 11.3486 16.2965C10.4348 16.1495 9.59073 15.7181 8.93632 15.0637C8.2819 14.4093 7.8505 13.5652 7.70347 12.6514C7.55644 11.7377 7.70127 10.8009 8.11735 9.97421C8.53344 9.14754 9.1996 8.47311 10.0211 8.04686C10.8426 7.62061 11.7775 7.46424 12.693 7.6C13.6268 7.73847 14.4913 8.17361 15.1589 8.84113C15.8264 9.50866 16.2615 10.3732 16.4 11.307Z" stroke="white" stroke-linecap="round" stroke-linejoin="round"/>
<path d="M18.05 5.95H18.06" stroke="white" stroke-width="2" stroke-linecap="round" stroke-linejoin="round"/>
</svg>
