<svg xmlns="http://www.w3.org/2000/svg" width="17.5" height="21.056" viewBox="0 0 17.5 21.056"><g transform="translate(-2.25 -0.25)"><path d="M11,.25A8.76,8.76,0,0,1,19.75,9a10.022,10.022,0,0,1-1.342,4.79,18.671,18.671,0,0,1-2.864,3.837,26.816,26.816,0,0,1-4.128,3.553.75.75,0,0,1-.832,0,26.816,26.816,0,0,1-4.128-3.553A18.671,18.671,0,0,1,3.592,13.79,10.022,10.022,0,0,1,2.25,9,8.76,8.76,0,0,1,11,.25Zm0,19.386C12.6,18.461,18.25,13.957,18.25,9A7.25,7.25,0,0,0,3.75,9C3.75,13.965,9.4,18.463,11,19.636Z"/><path d="M3-.75A3.75,3.75,0,1,1-.75,3,3.754,3.754,0,0,1,3-.75Zm0,6A2.25,2.25,0,1,0,.75,3,2.253,2.253,0,0,0,3,5.25Z" transform="translate(8 6.083)"/></g></svg>