<svg width="29" height="29" viewBox="0 0 29 29" fill="none" xmlns="http://www.w3.org/2000/svg">
<path d="M10.875 12.3283H14.5C14.8846 12.3283 15.2534 12.1756 15.5253 11.9037C15.7972 11.6318 15.95 11.2631 15.95 10.8786C15.95 10.4941 15.7972 10.1254 15.5253 9.8535C15.2534 9.58163 14.8846 9.42889 14.5 9.42889H13.05V8.70403C13.05 8.31955 12.8972 7.95081 12.6253 7.67893C12.3534 7.40706 11.9846 7.25432 11.6 7.25432C11.2154 7.25432 10.8466 7.40706 10.5747 7.67893C10.3028 7.95081 10.15 8.31955 10.15 8.70403V9.50138C9.26902 9.68023 8.48593 10.18 7.95276 10.9036C7.41959 11.6273 7.17437 12.5232 7.26472 13.4174C7.35506 14.3116 7.77452 15.1404 8.44167 15.7428C9.10881 16.3453 9.97604 16.6784 10.875 16.6775H12.325C12.5173 16.6775 12.7017 16.7538 12.8377 16.8898C12.9736 17.0257 13.05 17.2101 13.05 17.4023C13.05 17.5945 12.9736 17.7789 12.8377 17.9149C12.7017 18.0508 12.5173 18.1272 12.325 18.1272H8.70001C8.31544 18.1272 7.94663 18.2799 7.6747 18.5518C7.40278 18.8236 7.25001 19.1924 7.25001 19.5769C7.25001 19.9614 7.40278 20.3301 7.6747 20.602C7.94663 20.8738 8.31544 21.0266 8.70001 21.0266H10.15V21.7514C10.15 22.1359 10.3028 22.5047 10.5747 22.7765C10.8466 23.0484 11.2154 23.2012 11.6 23.2012C11.9846 23.2012 12.3534 23.0484 12.6253 22.7765C12.8972 22.5047 13.05 22.1359 13.05 21.7514V20.9541C13.931 20.7752 14.7141 20.2755 15.2473 19.5518C15.7804 18.8282 16.0256 17.9323 15.9353 17.0381C15.845 16.1438 15.4255 15.3151 14.7583 14.7126C14.0912 14.1102 13.224 13.7771 12.325 13.778H10.875C10.6827 13.778 10.4983 13.7017 10.3624 13.5657C10.2264 13.4298 10.15 13.2454 10.15 13.0532C10.15 12.8609 10.2264 12.6766 10.3624 12.5406C10.4983 12.4047 10.6827 12.3283 10.875 12.3283ZM27.55 14.5029H23.2V1.45547C23.201 1.20002 23.1345 0.948834 23.0072 0.72735C22.8799 0.505867 22.6963 0.321951 22.475 0.194225C22.2546 0.0669859 22.0045 0 21.75 0C21.4955 0 21.2454 0.0669859 21.025 0.194225L16.675 2.68773L12.325 0.194225C12.1046 0.0669859 11.8545 0 11.6 0C11.3455 0 11.0954 0.0669859 10.875 0.194225L6.52501 2.68773L2.17501 0.194225C1.95458 0.0669859 1.70454 0 1.45001 0C1.19548 0 0.945439 0.0669859 0.725011 0.194225C0.503735 0.321951 0.320144 0.505867 0.19283 0.72735C0.065515 0.948834 -0.00100294 1.20002 1.14302e-05 1.45547V24.6509C1.14302e-05 25.8043 0.458314 26.9105 1.2741 27.7262C2.08988 28.5418 3.19632 29 4.35001 29H24.65C25.8037 29 26.9101 28.5418 27.7259 27.7262C28.5417 26.9105 29 25.8043 29 24.6509V15.9526C29 15.5681 28.8472 15.1994 28.5753 14.9275C28.3034 14.6556 27.9346 14.5029 27.55 14.5029ZM4.35001 26.1006C3.96545 26.1006 3.59663 25.9478 3.32471 25.676C3.05278 25.4041 2.90001 25.0354 2.90001 24.6509V3.96348L5.80001 5.61615C6.0238 5.73301 6.27253 5.79404 6.52501 5.79404C6.77749 5.79404 7.02622 5.73301 7.25001 5.61615L11.6 3.12264L15.95 5.61615C16.1738 5.73301 16.4225 5.79404 16.675 5.79404C16.9275 5.79404 17.1762 5.73301 17.4 5.61615L20.3 3.96348V24.6509C20.3039 25.1454 20.3922 25.6357 20.561 26.1006H4.35001ZM26.1 24.6509C26.1 25.0354 25.9472 25.4041 25.6753 25.676C25.4034 25.9478 25.0346 26.1006 24.65 26.1006C24.2654 26.1006 23.8966 25.9478 23.6247 25.676C23.3528 25.4041 23.2 25.0354 23.2 24.6509V17.4023H26.1V24.6509Z" fill="white"/>
</svg>
