<svg width="22" height="22" viewBox="0 0 22 22" fill="none" xmlns="http://www.w3.org/2000/svg">
<path d="M11 21C16.5228 21 21 16.5228 21 11C21 5.47715 16.5228 1 11 1C5.47715 1 1 5.47715 1 11C1 16.5228 5.47715 21 11 21Z" stroke="white" stroke-width="2" stroke-linecap="round" stroke-linejoin="round"/>
<path d="M8.08984 8.00002C8.32495 7.33169 8.789 6.76813 9.3998 6.40915C10.0106 6.05018 10.7287 5.91896 11.427 6.03873C12.1253 6.15851 12.7587 6.52154 13.2149 7.06355C13.6712 7.60555 13.9209 8.29154 13.9198 9.00002C13.9198 11 10.9198 12 10.9198 12" stroke="white" stroke-width="2" stroke-linecap="round" stroke-linejoin="round"/>
<path d="M11 16H11.01" stroke="white" stroke-width="2" stroke-linecap="round" stroke-linejoin="round"/>
</svg>
