<svg width="12" height="12" viewBox="0 0 12 12" fill="none" xmlns="http://www.w3.org/2000/svg">
<path d="M5.07092 0.776245C5.4402 0.0420095 6.48837 0.0420105 6.85765 0.776246L7.88167 2.81224C8.02864 3.10447 8.30925 3.30634 8.63304 3.35279L10.8933 3.67702C11.719 3.79547 12.0453 4.81333 11.4423 5.38975L9.83244 6.92859C9.59122 7.15918 9.48091 7.49489 9.53836 7.82361L9.92133 10.0151C10.0637 10.8295 9.21234 11.455 8.47762 11.0758L6.42292 10.0154C6.1352 9.86686 5.79338 9.86686 5.50565 10.0154L3.45095 11.0758C2.71624 11.455 1.86491 10.8295 2.00724 10.0151L2.39022 7.82361C2.44766 7.49489 2.33735 7.15918 2.09613 6.92859L0.486305 5.38975C-0.116705 4.81333 0.209556 3.79547 1.0353 3.67702L3.29553 3.35279C3.61932 3.30634 3.89993 3.10447 4.0469 2.81224L5.07092 0.776245Z" fill="#E5D095"/>
</svg>
